<svg width="23" height="23" viewBox="0 0 23 23" fill="none" xmlns="http://www.w3.org/2000/svg">
<path d="M5.68147 11.1343C4.99722 11.1343 4.31966 10.9995 3.68749 10.7377C3.05532 10.4758 2.48092 10.092 1.99707 9.60818C1.51323 9.12434 1.12943 8.54994 0.867575 7.91777C0.605721 7.28559 0.470947 6.60804 0.470947 5.92378C0.470947 5.23953 0.605721 4.56197 0.867575 3.9298C1.12943 3.29763 1.51323 2.72323 1.99707 2.23938C2.48092 1.75554 3.05532 1.37174 3.68749 1.10988C4.31966 0.848031 4.99722 0.713257 5.68147 0.713257C7.06339 0.713257 8.38871 1.26222 9.36587 2.23938C10.343 3.21655 10.892 4.54187 10.892 5.92378C10.892 7.3057 10.343 8.63102 9.36587 9.60818C8.38871 10.5853 7.06339 11.1343 5.68147 11.1343ZM5.68147 22.7133C4.29956 22.7133 2.97424 22.1643 1.99707 21.1871C1.01991 20.21 0.470947 18.8846 0.470947 17.5027C0.470947 16.1208 1.01991 14.7955 1.99707 13.8183C2.97424 12.8412 4.29956 12.2922 5.68147 12.2922C7.06339 12.2922 8.38871 12.8412 9.36587 13.8183C10.343 14.7955 10.892 16.1208 10.892 17.5027C10.892 18.8846 10.343 20.21 9.36587 21.1871C8.38871 22.1643 7.06339 22.7133 5.68147 22.7133ZM17.2604 11.1343C16.5762 11.1343 15.8986 10.9995 15.2664 10.7377C14.6343 10.4758 14.0599 10.092 13.576 9.60818C13.0922 9.12434 12.7084 8.54994 12.4465 7.91777C12.1847 7.28559 12.0499 6.60804 12.0499 5.92378C12.0499 5.23953 12.1847 4.56197 12.4465 3.9298C12.7084 3.29763 13.0922 2.72323 13.576 2.23938C14.0599 1.75554 14.6343 1.37174 15.2664 1.10988C15.8986 0.848031 16.5762 0.713257 17.2604 0.713257C18.6423 0.713257 19.9677 1.26222 20.9448 2.23938C21.922 3.21655 22.4709 4.54187 22.4709 5.92378C22.4709 7.3057 21.922 8.63102 20.9448 9.60818C19.9677 10.5853 18.6423 11.1343 17.2604 11.1343ZM17.2604 22.7133C15.8785 22.7133 14.5532 22.1643 13.576 21.1871C12.5989 20.21 12.0499 18.8846 12.0499 17.5027C12.0499 16.1208 12.5989 14.7955 13.576 13.8183C14.5532 12.8412 15.8785 12.2922 17.2604 12.2922C18.6423 12.2922 19.9677 12.8412 20.9448 13.8183C21.922 14.7955 22.4709 16.1208 22.4709 17.5027C22.4709 18.8846 21.922 20.21 20.9448 21.1871C19.9677 22.1643 18.6423 22.7133 17.2604 22.7133Z" fill="white"/>
</svg>
