<svg width="24" height="23" viewBox="0 0 24 23" fill="none" xmlns="http://www.w3.org/2000/svg">
<path d="M5.87508 0.630005C6.52622 0.630005 7.17098 0.758256 7.77256 1.00744C8.37413 1.25662 8.92073 1.62184 9.38116 2.08227C9.84158 2.54269 10.2068 3.08929 10.456 3.69087C10.7052 4.29244 10.8334 4.9372 10.8334 5.58834V10.5467H5.87508C4.56005 10.5467 3.29888 10.0243 2.36901 9.09441C1.43914 8.16454 0.91675 6.90337 0.91675 5.58834C0.91675 4.27331 1.43914 3.01213 2.36901 2.08227C3.29888 1.1524 4.56005 0.630005 5.87508 0.630005ZM5.87508 12.88H10.8334V17.8383C10.8334 18.819 10.5426 19.7776 9.99779 20.593C9.45296 21.4084 8.67857 22.044 7.77256 22.4192C6.86654 22.7945 5.86958 22.8927 4.90776 22.7014C3.94594 22.5101 3.06245 22.0378 2.36901 21.3444C1.67558 20.651 1.20334 19.7675 1.01202 18.8057C0.820705 17.8438 0.918896 16.8469 1.29418 15.9409C1.66947 15.0348 2.30499 14.2605 3.12038 13.7156C3.93577 13.1708 4.89442 12.88 5.87508 12.88ZM18.1251 0.630005C19.4401 0.630005 20.7013 1.1524 21.6312 2.08227C22.561 3.01213 23.0834 4.27331 23.0834 5.58834C23.0834 6.90337 22.561 8.16454 21.6312 9.09441C20.7013 10.0243 19.4401 10.5467 18.1251 10.5467H13.1668V5.58834C13.1668 4.27331 13.6891 3.01213 14.619 2.08227C15.5489 1.1524 16.8101 0.630005 18.1251 0.630005ZM13.1668 12.88H18.1251C19.1058 12.88 20.0644 13.1708 20.8798 13.7156C21.6952 14.2605 22.3307 15.0348 22.706 15.9409C23.0813 16.8469 23.1795 17.8438 22.9881 18.8057C22.7968 19.7675 22.3246 20.651 21.6312 21.3444C20.9377 22.0378 20.0542 22.5101 19.0924 22.7014C18.1306 22.8927 17.1336 22.7945 16.2276 22.4192C15.3216 22.044 14.5472 21.4084 14.0024 20.593C13.4576 19.7776 13.1668 18.819 13.1668 17.8383V12.88Z" fill="white"/>
</svg>
