<svg width="21" height="22" viewBox="0 0 21 22" fill="none" xmlns="http://www.w3.org/2000/svg">
<path d="M20.9991 1.65018C20.9987 1.63325 20.9977 1.61632 20.9965 1.59946C20.9954 1.58438 20.9944 1.56929 20.9926 1.55447C20.9908 1.53926 20.9883 1.52418 20.9857 1.50909C20.983 1.49306 20.9804 1.47702 20.9769 1.46124C20.9738 1.44724 20.9699 1.43349 20.9662 1.41962C20.9619 1.40352 20.9577 1.38736 20.9526 1.37164C20.948 1.35777 20.9427 1.34415 20.9375 1.33047C20.9318 1.31545 20.9263 1.30037 20.9199 1.28573C20.9137 1.27141 20.9065 1.25748 20.8995 1.24341C20.8929 1.22998 20.8864 1.21643 20.8791 1.20338C20.8712 1.18919 20.8624 1.17551 20.8537 1.16164C20.8459 1.14917 20.8382 1.13663 20.8299 1.12454C20.8208 1.11156 20.8111 1.09908 20.8013 1.08648C20.7918 1.07401 20.7823 1.0616 20.7721 1.0497C20.7625 1.0385 20.7524 1.02775 20.7423 1.01693C20.7305 1.00433 20.7186 0.991921 20.7062 0.979893C20.702 0.975884 20.6983 0.97143 20.6941 0.967484C20.6878 0.961693 20.6811 0.956857 20.6747 0.95132C20.6616 0.939802 20.6484 0.928666 20.6348 0.917848C20.6231 0.908684 20.6113 0.899902 20.5993 0.891375C20.5861 0.881957 20.5728 0.872857 20.5592 0.864139C20.546 0.855739 20.5329 0.84772 20.5194 0.84002C20.506 0.83232 20.4925 0.825066 20.4787 0.818002C20.4646 0.810811 20.4505 0.803939 20.4362 0.797575C20.4222 0.791275 20.4081 0.78542 20.3938 0.77982C20.3791 0.774093 20.3645 0.768684 20.3497 0.76372C20.3352 0.75882 20.3203 0.754366 20.3054 0.750102C20.2903 0.745839 20.2751 0.741893 20.2599 0.738393C20.245 0.734957 20.2301 0.731966 20.215 0.72923C20.1989 0.726302 20.1827 0.723884 20.1665 0.721784C20.1521 0.719939 20.1376 0.718411 20.123 0.717202C20.1056 0.715802 20.0881 0.714975 20.0706 0.71453C20.062 0.714339 20.0539 0.713257 20.0454 0.713257H16.2272C15.7001 0.713257 15.2727 1.14064 15.2727 1.6678C15.2727 2.19497 15.7001 2.62235 16.2272 2.62235H17.8607L12.0645 8.88232L9.58405 6.4019C9.40065 6.21844 9.15106 6.11885 8.89098 6.12248C8.6316 6.12744 8.38539 6.23772 8.20899 6.42799L0.254449 15.0105C-0.103887 15.3972 -0.0809779 16.0011 0.305676 16.3595C0.489395 16.5298 0.722113 16.6139 0.954322 16.6139C1.21078 16.6139 1.46653 16.5112 1.65464 16.3083L8.93521 8.45297L11.4159 10.9337C11.5995 11.1172 11.8517 11.219 12.1093 11.2131C12.3688 11.2082 12.615 11.0977 12.7913 10.9073L19.0909 4.10368V5.48598C19.0909 6.01315 19.5183 6.44053 20.0454 6.44053C20.5726 6.44053 21 6.01315 21 5.48598V1.6678C21 1.66182 20.9992 1.65609 20.9991 1.65018Z" fill="white"/>
<path d="M20.0455 19.8042H0.954545C0.427382 19.8042 0 20.2316 0 20.7587C0 21.2859 0.427382 21.7133 0.954545 21.7133H20.0455C20.5726 21.7133 21 21.2859 21 20.7587C21 20.2316 20.5726 19.8042 20.0455 19.8042Z" fill="white"/>
</svg>
