<svg width="18" height="17" viewBox="0 0 18 17" fill="none" xmlns="http://www.w3.org/2000/svg">
<path d="M9.10364 7.62539C8.13314 7.62539 7.34707 8.41146 7.34707 9.38196C7.34707 10.3525 8.13314 11.1385 9.10364 11.1385C10.0741 11.1385 10.8602 10.3525 10.8602 9.38196C10.8602 8.41146 10.0741 7.62539 9.10364 7.62539ZM14.3733 9.38196C14.3733 6.47045 12.0152 4.11226 9.10364 4.11226C6.19213 4.11226 3.83394 6.47045 3.83394 9.38196C3.83394 11.3318 4.89227 13.0268 6.4644 13.9403L7.35147 12.412C6.30192 11.8016 5.59051 10.6818 5.59051 9.38196C5.59051 7.44095 7.16264 5.86883 9.10364 5.86883C11.0447 5.86883 12.6168 7.44095 12.6168 9.38196C12.6168 10.6818 11.9054 11.8016 10.8558 12.4077L11.7429 13.9359C13.315 13.0268 14.3733 11.3318 14.3733 9.38196ZM9.10364 0.599121C4.25112 0.599121 0.320801 4.52944 0.320801 9.38196C0.320801 12.6272 2.08615 15.4553 4.70783 16.9747L5.58611 15.4553C3.49141 14.2433 2.07737 11.9773 2.07737 9.38196C2.07737 5.49995 5.22163 2.35569 9.10364 2.35569C12.9857 2.35569 16.1299 5.49995 16.1299 9.38196C16.1299 11.9773 14.7159 14.2433 12.6212 15.4597L13.4995 16.9791C16.1211 15.4553 17.8865 12.6272 17.8865 9.38196C17.8865 4.52944 13.9518 0.599121 9.10364 0.599121Z" fill="white"/>
</svg>
