<svg width="23" height="24" viewBox="0 0 23 24" fill="none" xmlns="http://www.w3.org/2000/svg">
<path d="M9.19364 0.457759C10.7446 0.132533 12.346 0.13175 13.8973 0.455459C14.0006 1.13759 14.2564 1.78766 14.6455 2.35735C15.0347 2.92705 15.5472 3.4017 16.145 3.74605C16.7424 4.09158 17.41 4.298 18.0981 4.34996C18.7863 4.40191 19.4773 4.29806 20.1197 4.04613C21.1755 5.22815 21.9753 6.61587 22.4687 8.12201C21.9298 8.55268 21.495 9.09924 21.1964 9.72107C20.8978 10.3429 20.7432 11.024 20.7441 11.7138C20.7441 13.1671 21.4178 14.4629 22.471 15.3057C21.9747 16.8105 21.1739 18.1972 20.1186 19.3792C19.4763 19.1275 18.7855 19.0237 18.0976 19.0757C17.4096 19.1276 16.7423 19.334 16.145 19.6793C15.5477 20.0236 15.0355 20.4979 14.6466 21.0672C14.2577 21.6364 14.002 22.286 13.8984 22.9676C12.3477 23.2936 10.7462 23.2952 9.19479 22.9722C9.09194 22.2895 8.83642 21.6387 8.44725 21.0684C8.05808 20.4981 7.54528 20.0229 6.94703 19.6782C6.34958 19.3328 5.68196 19.1266 4.99382 19.0748C4.30568 19.0231 3.61472 19.1271 2.97234 19.3792C1.9164 18.1969 1.11664 16.8087 0.623393 15.3022C1.16193 14.8718 1.59661 14.3256 1.89517 13.7042C2.19374 13.0828 2.34852 12.4021 2.34802 11.7127C2.34859 11.0227 2.19362 10.3415 1.89464 9.7196C1.59566 9.09776 1.16035 8.5513 0.621094 8.12086C1.11741 6.61597 1.91815 5.22934 2.97349 4.04728C3.6158 4.29903 4.30659 4.40278 4.99451 4.35083C5.68244 4.29888 6.34981 4.09256 6.94703 3.7472C7.54438 3.40296 8.05652 2.9286 8.44545 2.35934C8.83438 1.79008 9.09011 1.14053 9.19364 0.458909V0.457759ZM11.546 15.1631C12.4608 15.1631 13.3382 14.7997 13.985 14.1528C14.6319 13.506 14.9953 12.6286 14.9953 11.7138C14.9953 10.799 14.6319 9.9217 13.985 9.27484C13.3382 8.62798 12.4608 8.26457 11.546 8.26457C10.6312 8.26457 9.7539 8.62798 9.10704 9.27484C8.46018 9.9217 8.09678 10.799 8.09678 11.7138C8.09678 12.6286 8.46018 13.506 9.10704 14.1528C9.7539 14.7997 10.6312 15.1631 11.546 15.1631Z" fill="white"/>
</svg>
