<svg width="20" height="23" viewBox="0 0 20 23" fill="none" xmlns="http://www.w3.org/2000/svg">
<path d="M18.7 22.7133H1.1C0.808262 22.7133 0.528472 22.5974 0.322182 22.3911C0.115892 22.1848 0 21.905 0 21.6133V1.81326C0 1.52152 0.115892 1.24173 0.322182 1.03544C0.528472 0.829149 0.808262 0.713257 1.1 0.713257H18.7C18.9917 0.713257 19.2715 0.829149 19.4778 1.03544C19.6841 1.24173 19.8 1.52152 19.8 1.81326V21.6133C19.8 21.905 19.6841 22.1848 19.4778 22.3911C19.2715 22.5974 18.9917 22.7133 18.7 22.7133ZM5.5 6.21326V8.41326H14.3V6.21326H5.5ZM5.5 10.6133V12.8133H14.3V10.6133H5.5ZM5.5 15.0133V17.2133H14.3V15.0133H5.5Z" fill="white"/>
</svg>
