<svg width="28" height="28" viewBox="0 0 28 28" fill="none" xmlns="http://www.w3.org/2000/svg">
<path d="M23.3334 9.33333V5.83333H4.66671V9.33333H23.3334ZM23.3334 11.6667H4.66671V22.1667H23.3334V11.6667ZM3.50004 3.5H24.5C24.8095 3.5 25.1062 3.62292 25.325 3.84171C25.5438 4.0605 25.6667 4.35725 25.6667 4.66667V23.3333C25.6667 23.6428 25.5438 23.9395 25.325 24.1583C25.1062 24.3771 24.8095 24.5 24.5 24.5H3.50004C3.19062 24.5 2.89388 24.3771 2.67508 24.1583C2.45629 23.9395 2.33337 23.6428 2.33337 23.3333V4.66667C2.33337 4.35725 2.45629 4.0605 2.67508 3.84171C2.89388 3.62292 3.19062 3.5 3.50004 3.5V3.5ZM12.8334 16.3333H19.8334V18.6667H7.58337L12.8334 13.4167V16.3333Z" fill="white"/>
</svg>
