<svg width="21" height="22" viewBox="0 0 21 22" fill="none" xmlns="http://www.w3.org/2000/svg">
<path d="M20.6746 20.5001C20.6746 20.7984 20.556 21.0846 20.3451 21.2956C20.1341 21.5065 19.8479 21.6251 19.5496 21.6251H1.54956C1.25119 21.6251 0.965044 21.5065 0.754066 21.2956C0.543087 21.0846 0.424561 20.7984 0.424561 20.5001V8.67631C0.424442 8.50488 0.463505 8.33568 0.538766 8.18165C0.614027 8.02762 0.723496 7.89282 0.858811 7.78756L9.85881 0.787812C10.0563 0.634188 10.2994 0.550781 10.5496 0.550781C10.7998 0.550781 11.0428 0.634188 11.2403 0.787812L20.2403 7.78756C20.3756 7.89282 20.4851 8.02762 20.5604 8.18165C20.6356 8.33568 20.6747 8.50488 20.6746 8.67631V20.5001ZM4.92456 14.8751V17.1251H16.1746V14.8751H4.92456Z" fill="white"/>
</svg>
