<svg width="25" height="24" viewBox="0 0 25 24" fill="none" xmlns="http://www.w3.org/2000/svg">
<path d="M20.0496 22H18.0496V20C18.0496 19.2044 17.7335 18.4413 17.1709 17.8787C16.6083 17.3161 15.8452 17 15.0496 17H9.04956C8.25391 17 7.49085 17.3161 6.92824 17.8787C6.36563 18.4413 6.04956 19.2044 6.04956 20V22H4.04956V20C4.04956 18.6739 4.57634 17.4021 5.51403 16.4645C6.45171 15.5268 7.72348 15 9.04956 15H15.0496C16.3756 15 17.6474 15.5268 18.5851 16.4645C19.5228 17.4021 20.0496 18.6739 20.0496 20V22ZM12.0496 13C11.2616 13 10.4814 12.8448 9.75346 12.5433C9.02551 12.2417 8.36407 11.7998 7.80692 11.2426C7.24977 10.6855 6.80781 10.0241 6.50628 9.2961C6.20476 8.56815 6.04956 7.78793 6.04956 7C6.04956 6.21207 6.20476 5.43185 6.50628 4.7039C6.80781 3.97595 7.24977 3.31451 7.80692 2.75736C8.36407 2.20021 9.02551 1.75825 9.75346 1.45672C10.4814 1.15519 11.2616 1 12.0496 1C13.6409 1 15.167 1.63214 16.2922 2.75736C17.4174 3.88258 18.0496 5.4087 18.0496 7C18.0496 8.5913 17.4174 10.1174 16.2922 11.2426C15.167 12.3679 13.6409 13 12.0496 13ZM12.0496 11C13.1104 11 14.1278 10.5786 14.878 9.82843C15.6281 9.07828 16.0496 8.06087 16.0496 7C16.0496 5.93913 15.6281 4.92172 14.878 4.17157C14.1278 3.42143 13.1104 3 12.0496 3C10.9887 3 9.97128 3.42143 9.22113 4.17157C8.47099 4.92172 8.04956 5.93913 8.04956 7C8.04956 8.06087 8.47099 9.07828 9.22113 9.82843C9.97128 10.5786 10.9887 11 12.0496 11Z" fill="white"/>
</svg>
