<svg width="20" height="25" viewBox="0 0 20 25" fill="none" xmlns="http://www.w3.org/2000/svg">
<path d="M1.6628 24.7449C1.34233 24.7449 1.03499 24.6176 0.808381 24.391C0.581774 24.1644 0.454468 23.8571 0.454468 23.5366V1.78658C0.454468 1.46611 0.581774 1.15877 0.808381 0.93216C1.03499 0.705553 1.34233 0.578247 1.6628 0.578247H18.5795C18.8999 0.578247 19.2073 0.705553 19.4339 0.93216C19.6605 1.15877 19.7878 1.46611 19.7878 1.78658V23.5366C19.7878 23.8571 19.6605 24.1644 19.4339 24.391C19.2073 24.6176 18.8999 24.7449 18.5795 24.7449H1.6628ZM13.7461 17.4949L19.7878 12.6616L13.7461 7.82825V11.4532H6.49613V13.8699H13.7461V17.4949Z" fill="white"/>
</svg>
