<svg width="18" height="25" viewBox="0 0 18 25" fill="none" xmlns="http://www.w3.org/2000/svg">
<path d="M2.57143 2.5V22.5H15.4286V2.5H2.57143ZM1.28571 0H16.7143C17.4857 0 18 0.5 18 1.25V23.75C18 24.5 17.4857 25 16.7143 25H1.28571C0.514286 25 0 24.5 0 23.75V1.25C0 0.5 0.514286 0 1.28571 0ZM9 18.75C9.77143 18.75 10.2857 19.25 10.2857 20C10.2857 20.75 9.77143 21.25 9 21.25C8.22857 21.25 7.71429 20.75 7.71429 20C7.71429 19.25 8.22857 18.75 9 18.75Z" fill="white"/>
<path d="M14.2714 12.25H12.7285V10.875H14.2714C14.5285 10.875 14.6571 10.75 14.6571 10.5C14.6571 10.25 14.5285 10.125 14.2714 10.125H12.7285V8.125C12.7285 7.875 12.7285 7.625 12.6 7.5C12.4714 7.375 12.3428 7.375 12.0857 7.375C11.9571 7.375 11.7 7.375 11.7 7.5C11.5714 7.625 11.4428 7.875 11.4428 8.125V10.125H8.61426L7.45712 8.375C7.32855 8.125 7.19998 8 7.19998 7.875C7.0714 7.75 6.94283 7.625 6.94283 7.5C6.81426 7.5 6.81426 7.375 6.68569 7.375C6.55712 7.375 6.42855 7.375 6.29998 7.375C6.1714 7.375 6.04283 7.375 5.78569 7.5C5.78569 7.5 5.65712 7.625 5.52855 7.875C5.52855 8 5.39998 8.25 5.39998 8.5V10.125H3.98569C3.72855 10.125 3.59998 10.25 3.59998 10.5C3.59998 10.75 3.72855 10.875 3.98569 10.875H5.52855V12.25H3.98569C3.72855 12.25 3.59998 12.375 3.59998 12.625C3.59998 12.875 3.72855 13 3.98569 13H5.52855V15.25C5.52855 15.5 5.52855 15.75 5.65712 15.875C5.78569 16 5.91426 16 6.04283 16C6.1714 16 6.42855 16 6.42855 15.875C6.55712 15.75 6.55712 15.5 6.55712 15.25V13H9.12855L10.5428 15.125C10.6714 15.25 10.8 15.375 10.8 15.5C10.9285 15.625 10.9285 15.75 11.0571 15.875C11.1857 16 11.1857 16 11.3143 16C11.4428 16 11.5714 16 11.7 16C12.0857 16 12.4714 15.875 12.4714 15V12.875H14.0143C14.2714 12.875 14.4 12.75 14.4 12.5C14.6571 12.5 14.4 12.25 14.2714 12.25ZM11.4428 10.875V12.25H10.1571L9.12855 10.875H11.4428ZM6.68569 9.25L7.19998 10.125H6.68569V9.25ZM6.68569 12.25V10.875H7.71426L8.61426 12.25H6.68569ZM11.4428 14.25L10.6714 13.125H11.4428V14.25Z" fill="white"/>
</svg>
