<svg width="22" height="22" viewBox="0 0 22 22" fill="none" xmlns="http://www.w3.org/2000/svg">
<path d="M0.5 2.54076C0.5 1.25509 1.54183 0.213257 2.8275 0.213257H19.1725C20.4582 0.213257 21.5 1.25509 21.5 2.54076V18.8858C21.5 19.503 21.2548 20.0951 20.8183 20.5315C20.3818 20.968 19.7898 21.2133 19.1725 21.2133H2.8275C2.21021 21.2133 1.6182 20.968 1.18171 20.5315C0.745218 20.0951 0.5 19.503 0.5 18.8858V2.54076ZM2.83333 2.54659V18.8799H19.1667V2.54659H2.83333ZM6.30067 17.9233C5.58315 17.6125 4.89875 17.2302 4.25783 16.7823C4.99781 15.6354 6.01363 14.6926 7.21229 14.0399C8.41096 13.3873 9.75418 13.0458 11.119 13.0466C13.919 13.0466 16.3888 14.4548 17.86 16.6014C17.2313 17.0665 16.5575 17.4671 15.8487 17.7973C15.3084 17.0483 14.5977 16.4384 13.7754 16.0181C12.953 15.5978 12.0425 15.3791 11.119 15.3799C9.11817 15.3799 7.35067 16.3879 6.30067 17.9233ZM11 11.8799C10.4638 11.8799 9.93279 11.7743 9.43738 11.5691C8.94196 11.3639 8.49182 11.0631 8.11265 10.6839C7.73347 10.3048 7.4327 9.85463 7.22749 9.35921C7.02228 8.8638 6.91667 8.33282 6.91667 7.79659C6.91667 7.26036 7.02228 6.72938 7.22749 6.23397C7.4327 5.73855 7.73347 5.28841 8.11265 4.90924C8.49182 4.53007 8.94196 4.22929 9.43738 4.02408C9.93279 3.81888 10.4638 3.71326 11 3.71326C12.083 3.71326 13.1216 4.14346 13.8874 4.90924C14.6531 5.67501 15.0833 6.71362 15.0833 7.79659C15.0833 8.87956 14.6531 9.91817 13.8874 10.6839C13.1216 11.4497 12.083 11.8799 11 11.8799ZM11 9.54659C11.4641 9.54659 11.9092 9.36222 12.2374 9.03403C12.5656 8.70584 12.75 8.26072 12.75 7.79659C12.75 7.33246 12.5656 6.88734 12.2374 6.55915C11.9092 6.23096 11.4641 6.04659 11 6.04659C10.5359 6.04659 10.0908 6.23096 9.76256 6.55915C9.43437 6.88734 9.25 7.33246 9.25 7.79659C9.25 8.26072 9.43437 8.70584 9.76256 9.03403C10.0908 9.36222 10.5359 9.54659 11 9.54659Z" fill="white"/>
</svg>
