<svg width="24" height="26" viewBox="0 0 24 26" fill="none" xmlns="http://www.w3.org/2000/svg">
<g clip-path="url(#clip0_1207_1580)">
<path d="M14.0816 8.66836C14.6809 8.66836 15.1633 8.18594 15.1633 7.58672V2.16836C15.1684 0.969922 14.1984 0 13 0H2.16836C0.969922 0 0 0.969922 0 2.16836V23.8367C0 25.0301 0.969922 26 2.16836 26H13C14.1984 26 15.1684 25.0301 15.1684 23.8316V17.3316H2.16836V5.41836H13V7.58672C13 8.18086 13.4824 8.66836 14.0816 8.66836ZM13 19.5V23.8316H2.16836V19.5H13ZM2.16836 3.25V2.16836H13V3.25H2.16836Z" fill="white"/>
<path d="M7.58164 20.5815C6.98242 20.5815 6.5 21.069 6.5 21.6632C6.5 22.2573 6.9875 22.7448 7.58164 22.7448C8.17578 22.7448 8.66328 22.2573 8.66328 21.6632C8.66328 21.069 8.18086 20.5815 7.58164 20.5815Z" fill="white"/>
<path d="M21.125 9.61279H7.49024L8.8918 8.21123C9.31328 7.78975 9.31328 7.1042 8.8918 6.67764C8.47031 6.25108 7.78477 6.25616 7.3582 6.67764L4.1082 9.92764C4.08281 9.95303 4.05742 9.97842 4.03711 10.0089C4.02695 10.019 4.0168 10.0343 4.00664 10.0495C3.99648 10.0647 3.98125 10.08 3.97109 10.0952C3.96094 10.1104 3.95078 10.1257 3.94062 10.1409C3.93047 10.1562 3.92031 10.1714 3.91523 10.1866C3.90508 10.2019 3.9 10.2171 3.88984 10.2374C3.88477 10.2526 3.87461 10.2679 3.86953 10.2831C3.86445 10.2983 3.85938 10.3136 3.84922 10.3339C3.84414 10.3491 3.83398 10.3694 3.82891 10.3847C3.82383 10.3999 3.81875 10.4151 3.81875 10.4354C3.81367 10.4558 3.80859 10.471 3.80352 10.4913C3.79844 10.5116 3.79844 10.5319 3.79336 10.5472C3.79336 10.5624 3.78828 10.5776 3.78828 10.5929C3.7832 10.6284 3.7832 10.664 3.7832 10.6995C3.7832 10.7351 3.7832 10.7706 3.78828 10.8062C3.78828 10.8214 3.79336 10.8366 3.79336 10.8519C3.79844 10.8722 3.79844 10.8925 3.80352 10.9077C3.80859 10.928 3.81367 10.9433 3.81875 10.9636C3.82383 10.9788 3.82891 10.994 3.82891 11.0144C3.83398 11.0296 3.83906 11.0499 3.84922 11.0651C3.8543 11.0804 3.85937 11.0956 3.86953 11.1159C3.87461 11.1312 3.88477 11.1464 3.88984 11.1616C3.9 11.1769 3.90508 11.1921 3.91523 11.2124C3.92539 11.2276 3.93047 11.2429 3.94062 11.2581C3.95078 11.2733 3.96094 11.2886 3.97109 11.3038C3.98125 11.319 3.99141 11.3343 4.00664 11.3495C4.0168 11.3647 4.02695 11.3749 4.03711 11.3901C4.05742 11.4155 4.08281 11.446 4.1082 11.4714L7.3582 14.7214C7.77969 15.1429 8.46524 15.1429 8.8918 14.7214C9.31836 14.2999 9.31328 13.6144 8.8918 13.1878L7.49024 11.7812H21.125C21.7242 11.7812 22.2066 11.2937 22.2066 10.6995C22.2066 10.1003 21.7242 9.61279 21.125 9.61279Z" fill="white"/>
<path d="M23.1206 18.4184C23.1206 18.454 23.1206 18.4895 23.1156 18.525C23.1156 18.5403 23.1105 18.5555 23.1105 18.5708C23.1054 18.5911 23.1054 18.6114 23.1003 18.6266C23.0953 18.6469 23.0902 18.6622 23.0851 18.6825C23.08 18.6977 23.0749 18.7129 23.0699 18.7333C23.0648 18.7485 23.0597 18.7688 23.0496 18.784C23.0445 18.7993 23.0394 18.8145 23.0292 18.8348C23.0242 18.85 23.014 18.8653 23.0089 18.8805C23.0039 18.8958 22.9937 18.9161 22.9835 18.9313C22.9734 18.9465 22.9683 18.9618 22.9581 18.977C22.948 18.9922 22.9378 19.0075 22.9277 19.0227C22.9175 19.0379 22.9074 19.0532 22.8921 19.0684C22.882 19.0836 22.8718 19.0938 22.8617 19.109C22.8414 19.1344 22.816 19.1649 22.7906 19.1903L19.5406 22.4403C19.1191 22.8618 18.4335 22.8618 18.007 22.4403C17.5804 22.0188 17.5855 21.3333 18.007 20.9067L19.4085 19.5051H5.78904C5.18982 19.5051 4.7074 19.0227 4.7074 18.4235C4.7074 17.8243 5.18982 17.3418 5.78904 17.3418H19.4238L18.0222 15.9403C17.6007 15.5188 17.6007 14.8333 18.0222 14.4067C18.4437 13.9852 19.1292 13.9852 19.5558 14.4067L22.8058 17.6567C22.8312 17.6821 22.8566 17.7075 22.8769 17.7379C22.8871 17.7481 22.8972 17.7633 22.9074 17.7786C22.9175 17.7938 22.9328 17.809 22.9429 17.8243C22.9531 17.8395 22.9632 17.8547 22.9734 17.87C22.9835 17.8852 22.9886 17.9004 22.9988 17.9157C23.0089 17.9309 23.014 17.9512 23.0242 17.9665C23.0343 17.9817 23.0394 17.9969 23.0445 18.0122C23.0496 18.0274 23.0546 18.0426 23.0648 18.0629C23.0699 18.0782 23.08 18.0985 23.0851 18.1137C23.0902 18.129 23.0953 18.1493 23.1003 18.1645C23.1054 18.1797 23.1105 18.2 23.1156 18.2204C23.1206 18.2407 23.1206 18.261 23.1257 18.2762C23.1257 18.2915 23.1308 18.3067 23.1308 18.3219C23.1206 18.3473 23.1206 18.3829 23.1206 18.4184Z" fill="white"/>
</g>
<defs>
<clipPath id="clip0_1207_1580">
<rect width="23.1207" height="26" fill="white"/>
</clipPath>
</defs>
</svg>
