<?xml version="1.0" encoding="UTF-8"?>
<svg xmlns="http://www.w3.org/2000/svg" xmlns:xlink="http://www.w3.org/1999/xlink" viewBox="0 0 50 50" width="50px" height="50px">
<g id="surface39290822">
<path style=" stroke:none;fill-rule:nonzero;fill:rgb(100%,100%,100%);fill-opacity:1;" d="M 25 2 C 12.320312 2 2 12.320312 2 25 C 2 37.679688 12.320312 48 25 48 C 37.679688 48 48 37.679688 48 25 C 48 12.320312 37.679688 2 25 2 Z M 33.710938 32.289062 C 34.101562 32.679688 34.101562 33.320312 33.710938 33.710938 C 33.511719 33.898438 33.261719 34 33 34 C 32.738281 34 32.488281 33.898438 32.289062 33.710938 L 25 26.421875 L 17.710938 33.710938 C 17.511719 33.898438 17.261719 34 17 34 C 16.738281 34 16.488281 33.898438 16.289062 33.710938 C 15.898438 33.320312 15.898438 32.679688 16.289062 32.289062 L 23.578125 25 L 16.289062 17.710938 C 15.898438 17.320312 15.898438 16.679688 16.289062 16.289062 C 16.679688 15.898438 17.320312 15.898438 17.710938 16.289062 L 25 23.578125 L 32.289062 16.289062 C 32.679688 15.898438 33.320312 15.898438 33.710938 16.289062 C 34.101562 16.679688 34.101562 17.320312 33.710938 17.710938 L 26.421875 25 Z M 33.710938 32.289062 "/>
</g>
</svg>
