<svg width="250" height="59" viewBox="0 0 250 59" fill="none" xmlns="http://www.w3.org/2000/svg">
<g clip-path="url(#clip0_7_2761)">
<path d="M37.8548 46.6834C37.7151 46.7694 37.5737 46.8626 37.4323 46.936C37.6082 46.8684 37.7925 46.8273 37.9796 46.8139L37.8548 46.6834Z" fill="#0046E6"/>
<path d="M55.2784 54.1215L41.5188 39.7106C44.357 36.233 45.9227 31.8299 45.9409 27.2751C45.9905 16.4821 37.4876 7.66799 26.9787 7.61964C16.4698 7.57129 7.8652 16.3212 7.81555 27.1142C7.76589 37.9071 16.2688 46.7213 26.7777 46.7696C31.0713 46.7959 35.2487 45.322 38.6363 42.5856L52.4462 57.0365C52.8189 57.4267 53.3258 57.6474 53.8556 57.65C54.3854 57.6526 54.8945 57.4369 55.271 57.0504C55.6475 56.6638 55.8605 56.1381 55.8632 55.5889C55.8659 55.0396 55.658 54.5118 55.2853 54.1215L55.2784 54.1215ZM26.797 42.5727C18.5306 42.5346 11.8262 35.6007 11.8652 27.1328C11.9042 18.6648 18.665 11.7929 26.9385 11.831C35.2119 11.869 41.9093 18.792 41.8703 27.2708C41.8313 35.7496 35.0635 42.6107 26.797 42.5727Z" fill="#0046E6"/>
<path d="M35.3192 35.0896C35.3189 35.4023 35.2496 35.7107 35.1165 35.9913C35.0681 36.0904 35.0124 36.1855 34.9498 36.2758C34.698 36.5153 34.437 36.7391 34.1667 36.9473C32.4174 38.3183 30.3338 39.1559 28.1506 39.3659C25.9674 39.5758 23.7712 39.1499 21.8092 38.1359C19.8473 37.1219 18.1974 35.5601 17.0453 33.6264C15.8933 31.6926 15.2848 29.4637 15.2883 27.1904C15.2918 24.9172 15.9073 22.6899 17.0654 20.7592C18.2235 18.8286 19.8782 17.2712 21.8434 16.2624C23.8085 15.2537 26.006 14.8335 28.1886 15.0493C30.3711 15.2651 32.452 16.1083 34.1971 17.4839C34.2786 17.5475 34.3584 17.6128 34.4382 17.68C34.7932 18.0155 35.0136 18.4773 35.0556 18.9735C35.0623 19.0377 35.0655 19.1022 35.0651 19.1667C35.0627 19.6981 34.8567 20.2069 34.4926 20.581C34.1284 20.9551 33.6359 21.1639 33.1233 21.1615C33.0607 21.1613 32.998 21.161 32.9354 21.1517C32.6798 21.1249 32.4321 21.0452 32.2069 20.9172C32.0474 20.7757 31.8843 20.6432 31.7143 20.5178C30.5252 19.6312 29.1228 19.1026 27.6619 18.9905C26.201 18.8784 24.7385 19.187 23.436 19.8824C22.1334 20.5778 21.0414 21.6328 20.2806 22.931C19.5197 24.2292 19.1197 25.7201 19.1246 27.2389C19.1295 28.7577 19.5391 30.2455 20.3083 31.5378C21.0775 32.8302 22.1763 33.8769 23.4833 34.5623C24.7904 35.2478 26.2548 35.5453 27.7149 35.422C29.175 35.2987 30.574 34.7595 31.7574 33.8638C32.0125 33.6705 32.2564 33.4618 32.488 33.2389C32.7594 33.1021 33.0577 33.0325 33.3595 33.0353C33.8815 33.0406 34.3802 33.2594 34.7473 33.6441C35.1143 34.0289 35.3198 34.5484 35.3192 35.0896Z" fill="#48D900"/>
<path d="M35.179 36.053L34.9499 36.2722C35.0124 36.1819 35.0681 36.0868 35.1166 35.9877L35.179 36.053Z" fill="black"/>
<path d="M32.2034 20.9118C32.0197 20.8068 31.8534 20.672 31.7108 20.5124C31.8809 20.6377 32.0439 20.7703 32.2034 20.9118Z" fill="black"/>
<path d="M34.4382 17.6764C34.3585 17.6092 34.2787 17.5438 34.1971 17.4803C34.2819 17.5396 34.3625 17.6051 34.4382 17.6764Z" fill="black"/>
<path d="M32.4846 33.2335C32.253 33.4564 32.0091 33.6651 31.7539 33.8584C31.9453 33.592 32.196 33.3776 32.4846 33.2335Z" fill="black"/>
<path d="M34.9499 36.2721C34.7495 36.5626 34.4796 36.7941 34.1668 36.9437C34.4348 36.7319 34.6958 36.5081 34.9499 36.2721Z" fill="black"/>
<path d="M52.4036 27.3085C52.3884 31.9386 51.2016 36.4839 48.9618 40.4904C48.8284 40.7304 48.6909 40.9705 48.5493 41.2105C48.2501 41.5439 47.8503 41.7616 47.4158 41.8279C46.9813 41.8942 46.5381 41.8052 46.159 41.5754C45.78 41.3456 45.4878 40.9888 45.3305 40.5637C45.1733 40.1387 45.1604 39.6707 45.2939 39.2369L45.2506 39.1916C48.0555 34.5271 49.1302 28.9652 48.2747 23.5416C47.4192 18.1179 44.6918 13.2021 40.6002 9.70927C36.5086 6.21649 31.3317 4.38481 26.0334 4.55527C20.7351 4.72573 15.6764 6.88671 11.7992 10.6359C7.92201 14.385 5.49056 19.4669 4.95755 24.9352C4.42453 30.4035 5.82628 35.8857 8.90179 40.361C11.9773 44.8363 16.517 47.9998 21.6756 49.2624C26.8343 50.525 32.2603 49.8007 36.9435 47.2244C37.1076 47.1331 37.2716 47.0454 37.4323 46.9432C37.6082 46.8756 37.7925 46.8345 37.9795 46.8212L38.1206 46.8218C38.3745 46.8227 38.6258 46.8756 38.86 46.9772C39.0942 47.0789 39.3067 47.2274 39.4855 47.4143C39.6643 47.6013 39.8058 47.8229 39.9019 48.0665C39.998 48.3102 40.0469 48.5711 40.0456 48.8344C40.0454 48.8838 40.0452 48.9325 40.045 48.9806C40.0237 49.2671 39.9432 49.5455 39.8089 49.7968C39.6747 50.0482 39.4899 50.2667 39.267 50.4375C39.1186 50.5252 38.9684 50.6166 38.8184 50.6917C35.0601 52.7855 30.8559 53.869 26.5902 53.8433C12.4147 53.7672 0.942259 41.7677 1.00987 27.072C1.07748 12.3763 12.6599 0.482845 26.8284 0.548031C40.997 0.613218 52.4712 12.6182 52.4036 27.3085Z" fill="#1B60FC"/>
<path d="M48.9618 40.4903C48.8752 40.7581 48.7346 41.0036 48.5493 41.2105C48.692 40.9717 48.8295 40.7316 48.9618 40.4903Z" fill="black"/>
<path d="M36.9435 47.2172C37.0925 47.0995 37.2572 47.0048 37.4323 46.936C37.2717 47.0327 37.1076 47.1258 36.9435 47.2172Z" fill="black"/>
<path d="M39.2601 50.4284C39.1223 50.5338 38.9714 50.6193 38.8114 50.6827C38.9615 50.6075 39.1117 50.5144 39.2601 50.4284Z" fill="black"/>
</g>
<path d="M60.0099 27.1861C60.0412 20.399 65.9149 14.728 72.7727 14.7596C74.5127 14.7683 76.2325 15.1354 77.8273 15.8379C79.4222 16.5407 80.8585 17.5644 82.0485 18.8468L78.308 22.2049C76.9231 20.5817 74.9458 19.4832 72.751 19.4731C68.748 19.4547 65.3206 23.0244 65.3014 27.2036C65.282 31.4239 68.6763 35.0273 72.6794 35.0457C74.8741 35.0558 76.8614 33.9756 78.2613 32.3629L81.9707 35.7576C80.7642 37.0227 79.3177 38.0292 77.7176 38.7167C76.1174 39.4043 74.3966 39.7588 72.6577 39.7593C65.7998 39.7346 59.9787 33.9756 60.0099 27.1861Z" fill="#0046E6"/>
<path d="M96.0394 20.8681L96.0202 25.0544C92.3447 25.0375 89.9856 27.1375 89.9704 30.4397L89.9318 38.8388L84.9567 38.8159L85.0377 21.2264L90.0061 21.2493L89.991 24.5161C90.5463 23.3945 91.4108 22.4553 92.4827 21.8088C93.5543 21.1626 94.7884 20.8361 96.0394 20.8681Z" fill="#0046E6"/>
<path d="M111.466 33.7922L114.649 37.143C113.06 38.8209 109.992 39.931 107.379 39.919C102.08 39.8946 97.9703 35.9079 97.996 30.3233C98.0211 24.8505 101.995 20.8941 107.198 20.918C112.771 20.9436 116.019 25.2776 115.988 32.1323L103.148 32.0733C103.724 34.0439 105.266 35.385 107.364 35.3947C108.775 35.3943 110.499 34.7341 111.466 33.7922ZM103.225 28.3794L111.171 28.4159C110.699 26.6237 109.397 25.4592 107.367 25.4499C106.464 25.4332 105.579 25.7071 104.837 26.233C104.095 26.7588 103.535 27.5099 103.234 28.3794L103.225 28.3794Z" fill="#0046E6"/>
<path d="M138.067 15.0599L137.953 39.6364L132.975 39.6135L132.987 37.0109C132.299 37.9622 131.402 38.7307 130.37 39.252C129.337 39.7734 128.199 40.0328 127.051 40.0086C122.355 39.987 118.97 36.0332 118.996 30.4421C119.021 24.8876 122.442 20.9651 127.138 20.9867C128.287 20.9732 129.422 21.2428 130.45 21.7731C131.477 22.3036 132.367 23.0796 133.046 24.0366L133.088 15.037L138.067 15.0599ZM133.026 30.5067C133.039 27.484 131.178 25.3293 128.557 25.3173C125.801 25.3046 123.851 27.4417 123.837 30.4644C123.823 33.5236 125.754 35.6785 128.509 35.6912C131.121 35.7032 133.003 33.5658 133.017 30.5066L133.026 30.5067Z" fill="#0046E6"/>
<path d="M142.059 16.6935C142.069 16.1726 142.252 15.6661 142.587 15.2372C142.921 14.8084 143.392 14.4761 143.939 14.2824C144.487 14.0884 145.087 14.0416 145.665 14.1474C146.243 14.2532 146.773 14.5071 147.189 14.8774C147.605 15.2477 147.887 15.7179 148.002 16.2291C148.116 16.7401 148.058 17.2696 147.833 17.751C147.608 18.2325 147.228 18.6446 146.739 18.9359C146.25 19.227 145.674 19.3842 145.084 19.388C144.685 19.3869 144.29 19.3161 143.922 19.1799C143.554 19.0435 143.219 18.8446 142.939 18.5942C142.657 18.344 142.435 18.0473 142.284 17.7211C142.133 17.3949 142.057 17.0457 142.059 16.6935ZM142.265 21.7554L147.809 21.781L147.73 39.1047L142.185 39.0792L142.265 21.7554Z" fill="#0046E6"/>
<path d="M162.958 38.6323C161.797 39.599 160.331 40.1375 158.811 40.1557C155.649 40.1411 153.43 37.9052 153.445 34.7137L153.485 26.0337L151.016 26.0223L151.035 21.9872L153.503 21.9986L153.526 17.1311L158.395 17.1535L158.373 22.021L162.269 22.0389L162.25 26.0829L158.354 26.065L158.318 33.9482C158.313 35.1144 159.075 35.9414 160.014 35.9458C160.71 35.949 161.407 35.7118 161.756 35.3706L162.958 38.6323Z" fill="#0046E6"/>
<path d="M165.009 27.6692C165.04 20.882 170.914 15.2111 177.772 15.2426C179.512 15.2513 181.231 15.6185 182.826 16.321C184.421 17.0237 185.857 18.0475 187.047 19.3298L183.307 22.688C181.922 21.0647 179.942 19.9663 177.75 19.9562C173.747 19.9378 170.32 23.5075 170.3 27.6867C170.281 31.907 173.675 35.5104 177.678 35.5288C179.871 35.5389 181.86 34.4587 183.26 32.8459L186.97 36.2407C185.763 37.5058 184.317 38.5122 182.716 39.1998C181.116 39.8874 179.395 40.2419 177.657 40.2424C170.799 40.2177 164.978 34.4587 165.009 27.6692Z" fill="#47D800"/>
<path d="M207.007 28.0807L206.955 39.3772L202.094 39.3548L202.141 29.124C202.151 26.9257 200.779 25.4079 198.777 25.3986C196.675 25.389 195.046 26.8931 195.038 28.8148L194.989 39.3221L189.956 39.2989L190.066 15.2992L195.1 15.3224L195.061 23.734C196.172 22.1941 198.143 21.1731 200.418 21.1836C204.28 21.2013 207.026 24.0632 207.007 28.0807Z" fill="#47D800"/>
<path d="M223.464 34.3075L226.65 37.6583C225.059 39.3362 221.993 40.4463 219.377 40.4343C214.079 40.4099 209.969 36.4231 209.995 30.8386C210.02 25.3658 213.994 21.4093 219.197 21.4333C224.781 21.459 228.018 25.7929 227.987 32.6476L215.154 32.5886C215.73 34.5592 217.272 35.9003 219.383 35.91C220.774 35.9096 222.497 35.2494 223.464 34.3075ZM215.224 28.8947L223.172 28.9312C222.698 27.139 221.398 25.9745 219.366 25.9652C218.463 25.9487 217.578 26.2229 216.836 26.7487C216.094 27.2746 215.534 28.0255 215.233 28.8947L215.224 28.8947Z" fill="#47D800"/>
<path d="M241.851 29.6546L248.886 39.5701L242.907 39.5426L238.385 32.8632L236.168 35.1527L236.148 39.5003L230.955 39.4764L231.066 15.4878L236.259 15.5117L236.195 29.4057L243.061 21.7849L249.037 21.8124L241.851 29.6546Z" fill="#47D800"/>
<path d="M129.062 16.0185C128.691 15.7547 128.355 15.4155 128.067 15.0139C128.41 15.3292 128.74 15.6625 129.062 16.0185Z" fill="#0046E6"/>
<path d="M134.094 9.04161C133.765 8.6975 133.436 8.36264 133.099 8.03702C133.449 8.34075 133.782 8.67647 134.094 9.04161Z" fill="#0046E6"/>
<path d="M129.933 44.0228C129.296 44.7329 128.625 45.3977 127.924 46.0136C128.45 45.1651 129.14 44.4821 129.933 44.0228Z" fill="white"/>
<defs>
<clipPath id="clip0_7_2761">
<rect width="55" height="57" fill="white" transform="translate(1.13245 0.42981) rotate(0.263604)"/>
</clipPath>
</defs>
</svg>
