<svg width="57" height="58" viewBox="0 0 57 58" fill="none" xmlns="http://www.w3.org/2000/svg">
<g clip-path="url(#clip0_6_3484)">
<path d="M37.8548 46.6834C37.7151 46.7694 37.5737 46.8626 37.4323 46.936C37.6082 46.8684 37.7925 46.8273 37.9796 46.8139L37.8548 46.6834Z" fill="#0046E6"/>
<path d="M55.2784 54.1215L41.5188 39.7106C44.357 36.233 45.9227 31.8299 45.9409 27.2751C45.9905 16.4821 37.4876 7.66799 26.9787 7.61964C16.4698 7.57129 7.8652 16.3212 7.81555 27.1142C7.76589 37.9071 16.2688 46.7213 26.7777 46.7696C31.0713 46.7959 35.2487 45.322 38.6363 42.5856L52.4462 57.0365C52.8189 57.4267 53.3258 57.6474 53.8556 57.65C54.3854 57.6526 54.8945 57.4369 55.271 57.0504C55.6475 56.6638 55.8605 56.1381 55.8632 55.5889C55.8659 55.0396 55.658 54.5118 55.2853 54.1215L55.2784 54.1215ZM26.797 42.5727C18.5306 42.5346 11.8262 35.6007 11.8652 27.1328C11.9042 18.6648 18.665 11.7929 26.9385 11.831C35.2119 11.869 41.9093 18.792 41.8703 27.2708C41.8313 35.7496 35.0635 42.6107 26.797 42.5727Z" fill="#0046E6"/>
<path d="M35.3192 35.0896C35.3189 35.4023 35.2496 35.7107 35.1165 35.9913C35.0681 36.0904 35.0124 36.1855 34.9498 36.2758C34.698 36.5153 34.437 36.7391 34.1667 36.9473C32.4174 38.3183 30.3338 39.1559 28.1506 39.3659C25.9674 39.5758 23.7712 39.1499 21.8092 38.1359C19.8473 37.1219 18.1974 35.5601 17.0453 33.6264C15.8933 31.6926 15.2848 29.4637 15.2883 27.1904C15.2918 24.9172 15.9073 22.6899 17.0654 20.7592C18.2235 18.8286 19.8782 17.2712 21.8434 16.2624C23.8085 15.2537 26.006 14.8335 28.1886 15.0493C30.3711 15.2651 32.452 16.1083 34.1971 17.4839C34.2786 17.5475 34.3584 17.6128 34.4382 17.68C34.7932 18.0155 35.0136 18.4773 35.0556 18.9735C35.0623 19.0377 35.0655 19.1022 35.0651 19.1667C35.0627 19.6981 34.8567 20.2069 34.4926 20.581C34.1284 20.9551 33.6359 21.1639 33.1233 21.1615C33.0607 21.1613 32.998 21.161 32.9354 21.1517C32.6798 21.1249 32.4321 21.0452 32.2069 20.9172C32.0474 20.7757 31.8843 20.6432 31.7143 20.5178C30.5252 19.6312 29.1228 19.1026 27.6619 18.9905C26.201 18.8784 24.7385 19.187 23.436 19.8824C22.1334 20.5778 21.0414 21.6328 20.2806 22.931C19.5197 24.2292 19.1197 25.7201 19.1246 27.2389C19.1295 28.7577 19.5391 30.2455 20.3083 31.5378C21.0775 32.8302 22.1763 33.8769 23.4833 34.5623C24.7904 35.2478 26.2548 35.5453 27.7149 35.422C29.175 35.2987 30.574 34.7595 31.7574 33.8638C32.0125 33.6705 32.2564 33.4618 32.488 33.2389C32.7594 33.1021 33.0577 33.0325 33.3595 33.0353C33.8815 33.0406 34.3802 33.2594 34.7473 33.6441C35.1143 34.0289 35.3198 34.5484 35.3192 35.0896Z" fill="#48D900"/>
<path d="M35.179 36.053L34.9499 36.2722C35.0124 36.1819 35.0681 36.0868 35.1166 35.9877L35.179 36.053Z" fill="black"/>
<path d="M32.2034 20.9118C32.0197 20.8068 31.8534 20.672 31.7108 20.5124C31.8809 20.6377 32.0439 20.7703 32.2034 20.9118Z" fill="black"/>
<path d="M34.4382 17.6764C34.3585 17.6092 34.2787 17.5438 34.1971 17.4803C34.2819 17.5396 34.3625 17.6051 34.4382 17.6764Z" fill="black"/>
<path d="M32.4846 33.2335C32.253 33.4564 32.0091 33.6651 31.7539 33.8584C31.9453 33.592 32.196 33.3776 32.4846 33.2335Z" fill="black"/>
<path d="M34.9499 36.2721C34.7495 36.5626 34.4796 36.7941 34.1668 36.9437C34.4348 36.7319 34.6958 36.5081 34.9499 36.2721Z" fill="black"/>
<path d="M52.4036 27.3085C52.3884 31.9386 51.2016 36.4839 48.9618 40.4904C48.8284 40.7304 48.6909 40.9705 48.5493 41.2105C48.2501 41.5439 47.8503 41.7616 47.4158 41.8279C46.9813 41.8942 46.5381 41.8052 46.159 41.5754C45.78 41.3456 45.4878 40.9888 45.3305 40.5637C45.1733 40.1387 45.1604 39.6707 45.2939 39.2369L45.2506 39.1916C48.0555 34.5271 49.1302 28.9652 48.2747 23.5416C47.4192 18.1179 44.6918 13.2021 40.6002 9.70927C36.5086 6.21649 31.3317 4.38481 26.0334 4.55527C20.7351 4.72573 15.6764 6.88671 11.7992 10.6359C7.92201 14.385 5.49056 19.4669 4.95755 24.9352C4.42453 30.4035 5.82628 35.8857 8.90179 40.361C11.9773 44.8363 16.517 47.9998 21.6756 49.2624C26.8343 50.525 32.2603 49.8007 36.9435 47.2244C37.1076 47.1331 37.2716 47.0454 37.4323 46.9432C37.6082 46.8756 37.7925 46.8345 37.9795 46.8212L38.1206 46.8218C38.3745 46.8227 38.6258 46.8756 38.86 46.9772C39.0942 47.0789 39.3067 47.2274 39.4855 47.4143C39.6643 47.6013 39.8058 47.8229 39.9019 48.0665C39.998 48.3102 40.0469 48.5711 40.0456 48.8344C40.0454 48.8838 40.0452 48.9325 40.045 48.9806C40.0237 49.2671 39.9432 49.5455 39.8089 49.7968C39.6747 50.0482 39.4899 50.2667 39.267 50.4375C39.1186 50.5252 38.9684 50.6166 38.8184 50.6917C35.0601 52.7855 30.8559 53.869 26.5902 53.8433C12.4147 53.7672 0.942259 41.7677 1.00987 27.072C1.07748 12.3763 12.6599 0.482845 26.8284 0.548031C40.997 0.613218 52.4712 12.6182 52.4036 27.3085Z" fill="#1B60FC"/>
<path d="M48.9618 40.4903C48.8752 40.7581 48.7346 41.0036 48.5493 41.2105C48.692 40.9717 48.8295 40.7316 48.9618 40.4903Z" fill="black"/>
<path d="M36.9435 47.2172C37.0925 47.0995 37.2572 47.0048 37.4323 46.936C37.2717 47.0327 37.1076 47.1258 36.9435 47.2172Z" fill="black"/>
<path d="M39.2601 50.4284C39.1223 50.5338 38.9714 50.6193 38.8114 50.6827C38.9615 50.6075 39.1117 50.5144 39.2601 50.4284Z" fill="black"/>
</g>
<defs>
<clipPath id="clip0_6_3484">
<rect width="55" height="57" fill="white" transform="translate(1.13245 0.42981) rotate(0.263604)"/>
</clipPath>
</defs>
</svg>
