<svg width="15" height="8" viewBox="0 0 15 8" fill="none" xmlns="http://www.w3.org/2000/svg">
<path d="M6.07103 7.87889L4.86416 7.55514L5.35603 5.71826C4.61977 5.44672 3.93548 5.05099 3.33291 4.54826L1.98729 5.89451L1.10291 5.01014L2.44916 3.66451C1.68921 2.75436 1.17859 1.66249 0.967285 0.495762L2.19729 0.271387C2.67166 2.89764 4.96916 4.89014 7.73228 4.89014C10.4948 4.89014 12.7929 2.89764 13.2673 0.271387L14.4973 0.495137C14.2863 1.66202 13.7759 2.75412 13.016 3.66451L14.3617 5.01014L13.4773 5.89451L12.1317 4.54826C11.5291 5.05099 10.8448 5.44672 10.1085 5.71826L10.6004 7.55576L9.39353 7.87889L8.90103 6.04139C8.12751 6.17394 7.33706 6.17394 6.56353 6.04139L6.07103 7.87889Z" fill="#989898"/>
</svg>
