<svg width="19" height="17" viewBox="0 0 19 17" fill="none" xmlns="http://www.w3.org/2000/svg">
<path d="M14.1323 14.2781C12.7399 15.1613 11.1245 15.629 9.47569 15.6263C5.20702 15.6263 1.6556 12.5547 0.910645 8.50134C1.25108 6.65733 2.1786 4.9728 3.55481 3.69909L1.07769 1.22434L2.19789 0.104134L17.8721 15.7791L16.7519 16.8986L14.1315 14.2781H14.1323ZM4.67423 4.82009C3.59836 5.79827 2.8489 7.0833 2.52723 8.50134C2.77446 9.58312 3.27081 10.5923 3.97677 11.4484C4.68273 12.3045 5.57881 12.9841 6.59367 13.4329C7.60852 13.8817 8.71414 14.0874 9.82251 14.0336C10.9309 13.9798 12.0114 13.6681 12.978 13.1231L11.3725 11.5176C10.6891 11.9481 9.8796 12.1336 9.07688 12.0436C8.27416 11.9536 7.52584 11.5935 6.95468 11.0224C6.38352 10.4512 6.02341 9.70288 5.93342 8.90016C5.84344 8.09744 6.02892 7.28796 6.45944 6.60451L4.67423 4.82009ZM10.1993 10.3443L7.63269 7.77776C7.49182 8.13634 7.45867 8.52823 7.5373 8.90537C7.61592 9.28251 7.80291 9.62851 8.07532 9.90092C8.34774 10.1733 8.69373 10.3603 9.07087 10.4389C9.44802 10.5176 9.83991 10.4844 10.1985 10.3436L10.1993 10.3443ZM16.4479 12.1367L15.315 11.0046C15.8442 10.2504 16.221 9.40003 16.4241 8.50134C16.209 7.55904 15.8045 6.67034 15.2352 5.88924C14.6659 5.10814 13.9437 4.45096 13.1125 3.95765C12.2813 3.46435 11.3585 3.14522 10.4001 3.01966C9.44178 2.89409 8.4679 2.96473 7.53769 3.22726L6.28844 1.97801C7.27565 1.59009 8.35152 1.37634 9.47569 1.37634C13.7444 1.37634 17.2958 4.44801 18.0407 8.50134C17.7982 9.82002 17.2529 11.0644 16.4479 12.1367ZM9.2564 4.94518C9.7603 4.91404 10.2651 4.99035 10.7372 5.16907C11.2094 5.34779 11.6382 5.62483 11.9952 5.98183C12.3522 6.33882 12.6292 6.76762 12.808 7.23979C12.9867 7.71196 13.063 8.21673 13.0319 8.72064L9.2556 4.94518H9.2564Z" fill="#0046E6"/>
</svg>
