<svg width="542" height="536" viewBox="0 0 542 536" fill="none" xmlns="http://www.w3.org/2000/svg">
<path d="M531.988 818.33L315.567 598.711C359.744 545.28 383.936 477.772 383.892 408.05C383.892 242.839 250.158 108.52 85.6549 108.52C-78.8482 108.52 -212.909 243.06 -212.909 408.271C-212.909 573.483 -79.1752 707.802 85.3279 707.802C152.538 707.902 217.823 685.047 270.653 642.922L487.864 863.149C493.726 869.096 501.678 872.439 509.971 872.442C518.264 872.444 526.218 869.107 532.083 863.163C537.949 857.22 541.246 849.157 541.248 840.75C541.251 832.342 537.959 824.277 532.097 818.33H531.988ZM85.3279 643.558C-44.0725 643.558 -149.517 537.893 -149.517 408.271C-149.517 278.65 -44.1815 172.985 85.3279 172.985C214.837 172.985 320.173 278.484 320.173 408.271C320.173 538.059 214.728 643.558 85.3279 643.558Z" fill="white" fill-opacity="0.32"/>
<path d="M218.189 528.415C218.207 533.201 217.144 537.927 215.082 542.231C214.331 543.752 213.465 545.211 212.493 546.597C208.569 550.281 204.499 553.726 200.284 556.931C172.999 578.04 140.445 591.008 106.286 594.376C72.1262 597.744 37.7177 591.378 6.93305 575.995C-23.8516 560.612 -49.7902 536.822 -67.963 507.304C-86.1359 477.785 -95.8215 443.71 -95.9297 408.913C-96.038 374.116 -86.5645 339.979 -68.5756 310.345C-50.5867 280.711 -24.7967 256.756 5.89169 241.176C36.58 225.597 70.9483 219.011 105.128 222.16C139.308 225.31 171.942 238.07 199.357 259.003C200.638 259.97 201.892 260.965 203.145 261.988C208.727 267.099 212.209 274.151 212.902 281.745C213.012 282.726 213.066 283.713 213.066 284.701C213.066 292.836 209.878 300.637 204.205 306.389C198.532 312.141 190.837 315.373 182.814 315.373C181.833 315.373 180.852 315.373 179.871 315.234C175.869 314.844 171.985 313.641 168.451 311.698C165.944 309.542 163.382 307.525 160.711 305.619C142.034 292.131 120.043 284.138 97.1676 282.525C74.292 280.911 51.4216 285.739 31.082 296.475C10.7424 307.211 -6.27501 323.438 -18.091 343.363C-29.9069 363.288 -36.0617 386.136 -35.8756 409.384C-35.6895 432.633 -29.1698 455.377 -17.0364 475.105C-4.90305 494.833 12.3719 510.777 32.8806 521.177C53.3894 531.577 76.3341 536.028 99.1808 534.038C122.028 532.048 143.888 523.695 162.347 509.902C166.326 506.925 170.13 503.714 173.739 500.286C177.978 498.173 182.642 497.085 187.365 497.108C195.537 497.152 203.36 500.466 209.133 506.329C214.906 512.193 218.161 520.131 218.189 528.415Z" fill="white" fill-opacity="0.32"/>
<path d="M168.397 311.615C165.513 310.021 162.9 307.969 160.657 305.536C163.328 307.442 165.889 309.459 168.397 311.615Z" fill="white" fill-opacity="0.32"/>
<path d="M203.145 261.933C201.891 260.91 200.638 259.915 199.357 258.948C200.688 259.85 201.954 260.847 203.145 261.933Z" fill="white" fill-opacity="0.32"/>
<path d="M173.684 500.203C170.075 503.631 166.271 506.842 162.292 509.819C165.268 505.728 169.176 502.429 173.684 500.203Z" fill="white" fill-opacity="0.32"/>
<path d="M485.057 408.106C485.153 478.98 466.903 548.639 432.13 610.123C430.059 613.807 427.924 617.492 425.726 621.176C421.065 626.299 414.823 629.66 408.027 630.706C401.231 631.752 394.286 630.42 388.336 626.929C382.387 623.438 377.787 617.997 375.295 611.502C372.802 605.007 372.566 597.845 374.625 591.195L373.944 590.505C417.514 518.907 433.937 433.697 420.155 350.737C406.373 267.777 363.326 192.722 299.027 139.546C234.728 86.3704 153.561 58.6975 70.6363 61.6799C-12.288 64.6622 -91.3176 98.0966 -151.738 155.758C-212.159 213.419 -249.854 291.378 -257.803 375.12C-265.753 458.861 -243.416 542.678 -194.952 610.965C-146.487 679.252 -75.198 727.355 5.64297 746.318C86.4839 765.282 171.367 753.813 244.489 714.047C247.051 712.638 249.613 711.284 252.12 709.709C254.868 708.662 257.75 708.02 260.678 707.802H262.885C266.86 707.799 270.797 708.589 274.47 710.129C278.144 711.669 281.482 713.927 284.294 716.776C287.106 719.624 289.337 723.007 290.859 726.73C292.381 730.453 293.164 734.444 293.164 738.474C293.164 739.229 293.164 739.975 293.164 740.712C292.851 745.098 291.611 749.365 289.528 753.222C287.445 757.079 284.567 760.437 281.091 763.066C278.774 764.42 276.43 765.829 274.086 766.99C215.409 799.304 149.677 816.186 82.9021 816.092C-138.997 815.926 -319.444 633.058 -319.444 408.106C-319.444 183.154 -138.997 0.285095 82.793 0.285095C304.583 0.285095 485.057 183.237 485.057 408.106Z" fill="white" fill-opacity="0.32"/>
</svg>
