<svg width="32" height="33" viewBox="0 0 32 33" fill="none" xmlns="http://www.w3.org/2000/svg">
<mask id="path-1-inside-1_1004_5310" fill="white">
<path fill-rule="evenodd" clip-rule="evenodd" d="M0 5.00012V29.0001L3.99768 32.9978H28.0023L32 29.0001V5.00012L28 1.00012L28.0023 0.997803H3.99768L4 1.00012L0 5.00012Z"/>
</mask>
<path fill-rule="evenodd" clip-rule="evenodd" d="M0 5.00012V29.0001L3.99768 32.9978H28.0023L32 29.0001V5.00012L28 1.00012L28.0023 0.997803H3.99768L4 1.00012L0 5.00012Z" fill="white"/>
<path d="M0 5.00012L-0.707107 4.29302L-1 4.58591V5.00012H0ZM0 29.0001H-1V29.4143L-0.707107 29.7072L0 29.0001ZM3.99768 32.9978L3.29057 33.7049L3.58347 33.9978H3.99768V32.9978ZM28.0023 32.9978V33.9978H28.4165L28.7094 33.7049L28.0023 32.9978ZM32 29.0001L32.7071 29.7072L33 29.4143V29.0001H32ZM32 5.00012H33V4.58591L32.7071 4.29302L32 5.00012ZM28 1.00012L27.2929 0.293015L26.5858 1.00012L27.2929 1.70723L28 1.00012ZM28.0023 0.997803L28.7094 1.70491L30.4165 -0.00219727H28.0023V0.997803ZM3.99768 0.997803V-0.00219727H1.58347L3.29057 1.70491L3.99768 0.997803ZM4 1.00012L4.70711 1.70723L5.41421 1.00012L4.70711 0.293015L4 1.00012ZM-1 5.00012V29.0001H1V5.00012H-1ZM-0.707107 29.7072L3.29057 33.7049L4.70479 32.2907L0.707107 28.293L-0.707107 29.7072ZM3.99768 33.9978H28.0023V31.9978H3.99768V33.9978ZM28.7094 33.7049L32.7071 29.7072L31.2929 28.293L27.2952 32.2907L28.7094 33.7049ZM33 29.0001V5.00012H31V29.0001H33ZM32.7071 4.29302L28.7071 0.293015L27.2929 1.70723L31.2929 5.70723L32.7071 4.29302ZM28.7071 1.70723L28.7094 1.70491L27.2952 0.290696L27.2929 0.293015L28.7071 1.70723ZM28.0023 -0.00219727H3.99768V1.9978H28.0023V-0.00219727ZM3.29057 1.70491L3.29289 1.70723L4.70711 0.293015L4.70479 0.290696L3.29057 1.70491ZM3.29289 0.293015L-0.707107 4.29302L0.707107 5.70723L4.70711 1.70723L3.29289 0.293015Z" fill="#B0BAC9" mask="url(#path-1-inside-1_1004_5310)"/>
<path fill-rule="evenodd" clip-rule="evenodd" d="M20.1305 9.26947C20.4234 9.56237 20.4234 10.0372 20.1305 10.3301L13.4608 16.9998L20.1305 23.6695C20.4234 23.9624 20.4234 24.4372 20.1305 24.7301C19.8376 25.023 19.3627 25.023 19.0698 24.7301L11.8698 17.5301C11.7292 17.3895 11.6501 17.1987 11.6501 16.9998C11.6501 16.8009 11.7292 16.6101 11.8698 16.4695L19.0698 9.26947C19.3627 8.97658 19.8376 8.97658 20.1305 9.26947Z" fill="#B0BAC9"/>
</svg>
