<svg width="94" height="95" viewBox="0 0 94 95" fill="none" xmlns="http://www.w3.org/2000/svg">
<circle cx="47" cy="47.4795" r="47" fill="#E3EAF7"/>
<path d="M47 85.4795C67.9868 85.4795 85 68.4663 85 47.4795C85 26.4927 67.9868 9.47949 47 9.47949C26.0132 9.47949 9 26.4927 9 47.4795C9 68.4663 26.0132 85.4795 47 85.4795Z" fill="#0046E6"/>
<path d="M61.9951 32.4842C60.2327 30.7217 57.8892 29.751 55.3968 29.751C52.9042 29.751 50.5608 30.7217 48.7983 32.4842L41.4365 39.846L42.9891 41.3986L50.3508 34.0368C51.6986 32.689 53.4906 31.9467 55.3968 31.9467C57.3028 31.9467 59.0948 32.689 60.4426 34.0368C61.7904 35.3846 62.5327 37.1765 62.5327 39.0826C62.5327 40.9887 61.7904 42.7807 60.4426 44.1285L53.0808 51.4903L54.6333 53.0428L61.9951 45.681C63.7577 43.9186 64.7284 41.5751 64.7284 39.0826C64.7284 36.5901 63.7577 34.2467 61.9951 32.4842Z" fill="white"/>
<path d="M43.649 60.9221C42.3012 62.2698 40.5092 63.0122 38.6032 63.0122C36.6971 63.0122 34.9051 62.2698 33.5573 60.9221C32.2094 59.5743 31.4672 57.7823 31.4672 55.8763C31.4672 53.9701 32.2094 52.1782 33.5572 50.8304L40.919 43.4686L39.3665 41.916L32.0047 49.2778C30.2422 51.0403 29.2715 53.3837 29.2715 55.8763C29.2715 58.3688 30.2422 60.7122 32.0047 62.4746C33.7672 64.2372 36.1106 65.2079 38.6031 65.2079C41.0956 65.2079 43.4391 64.2372 45.2015 62.4746L52.5633 55.1128L51.0108 53.5603L43.649 60.9221Z" fill="white"/>
<path d="M52.8156 40.1108L54.3682 41.6634L41.1844 54.8472L39.6318 53.2946L52.8156 40.1108Z" fill="white"/>
</svg>
