<svg width="21" height="21" viewBox="0 0 21 21" fill="none" xmlns="http://www.w3.org/2000/svg">
<g clip-path="url(#clip0_2178_9418)">
<path d="M3.00267 0.687012C1.3578 0.687012 -0.000976562 2.03799 -0.000976562 3.68285V17.6855C-0.000976562 19.3304 1.3578 20.6814 3.00267 20.6814H16.9976C18.6424 20.6814 20.0032 19.3304 20.0032 17.6855V3.68285C20.0032 2.03799 18.6424 0.687012 16.9976 0.687012H3.00267ZM14.9684 6.68063C15.1051 6.6767 15.2411 6.70084 15.3681 6.75157C15.4951 6.80229 15.6103 6.87851 15.7066 6.97553C15.7998 7.06841 15.8737 7.17876 15.9241 7.30024C15.9745 7.42172 16.0004 7.55195 16.0004 7.68348C16.0004 7.815 15.9745 7.94523 15.9241 8.06671C15.8737 8.18819 15.7998 8.29854 15.7066 8.39142L10.709 13.389C9.77468 14.3234 8.22571 14.3234 7.29136 13.389L4.29553 10.3932C4.20211 10.3003 4.12799 10.1898 4.07741 10.0682C4.02682 9.9465 4.00078 9.81604 4.00078 9.68428C4.00078 9.55252 4.02682 9.42206 4.07741 9.3004C4.12799 9.17874 4.20211 9.06828 4.29553 8.97536C4.48288 8.78907 4.73634 8.68451 5.00054 8.68451C5.26475 8.68451 5.51821 8.78907 5.70556 8.97536L8.70921 11.9712C8.87933 12.1413 9.12106 12.1413 9.29119 11.9712L14.2888 6.97553C14.4692 6.79384 14.7125 6.68829 14.9684 6.68063V6.68063Z" fill="#C4C4C4"/>
</g>
<defs>
<clipPath id="clip0_2178_9418">
<rect width="20.006" height="19.996" fill="white" transform="translate(0 0.689453)"/>
</clipPath>
</defs>
</svg>
