<svg width="188" height="44" viewBox="0 0 188 44" fill="none" xmlns="http://www.w3.org/2000/svg">
<path d="M41.568 40.616L31.2221 29.7804C33.3562 27.1655 34.5335 23.8549 34.5471 20.4301C34.5844 12.3148 28.1911 5.68742 20.2894 5.65106C12.3877 5.61471 5.91784 12.1938 5.8805 20.3091C5.84316 28.4244 12.2365 35.0517 20.1382 35.0881C23.3666 35.1079 26.5076 33.9996 29.0547 31.9421L39.4384 42.8078C39.7187 43.1012 40.0999 43.2672 40.4982 43.2691C40.8965 43.2711 41.2794 43.1089 41.5624 42.8182C41.8455 42.5276 42.0057 42.1323 42.0077 41.7193C42.0098 41.3063 41.8535 40.9095 41.5732 40.616L41.568 40.616ZM20.1527 31.9324C13.9372 31.9038 8.89616 26.6902 8.92545 20.3231C8.95475 13.956 14.0383 8.78895 20.2591 8.81757C26.4799 8.84619 31.5157 14.0516 31.4864 20.4269C31.4571 26.8021 26.3683 31.961 20.1527 31.9324Z" fill="white"/>
<path d="M26.5607 26.3059C26.5605 26.541 26.5084 26.7729 26.4084 26.9839C26.3719 27.0584 26.33 27.1299 26.283 27.1978C26.0937 27.3779 25.8974 27.5462 25.6942 27.7027C24.3788 28.7335 22.8122 29.3633 21.1707 29.5212C19.5291 29.6791 17.8778 29.3588 16.4025 28.5964C14.9273 27.834 13.6868 26.6597 12.8205 25.2057C11.9543 23.7517 11.4967 22.0757 11.4994 20.3665C11.5021 18.6572 11.9648 16.9825 12.8356 15.5308C13.7064 14.0792 14.9506 12.9082 16.4282 12.1497C17.9058 11.3912 19.5581 11.0753 21.1992 11.2375C22.8402 11.3998 24.4049 12.0338 25.717 13.0681C25.7783 13.1159 25.8383 13.165 25.8983 13.2155C26.1653 13.4678 26.3309 13.815 26.3625 14.1881C26.3675 14.2364 26.3699 14.2849 26.3697 14.3334C26.3678 14.733 26.213 15.1155 25.9392 15.3968C25.6654 15.6781 25.295 15.8351 24.9097 15.8333C24.8625 15.8331 24.8154 15.8329 24.7683 15.8259C24.5762 15.8058 24.3899 15.7459 24.2206 15.6496C24.1006 15.5432 23.978 15.4436 23.8502 15.3493C22.9561 14.6826 21.9016 14.2852 20.8032 14.2009C19.7047 14.1166 18.6051 14.3487 17.6257 14.8715C16.6463 15.3944 15.8252 16.1877 15.2531 17.1638C14.681 18.1399 14.3802 19.2609 14.3839 20.4029C14.3876 21.5449 14.6956 22.6636 15.274 23.6353C15.8523 24.607 16.6785 25.394 17.6613 25.9094C18.644 26.4248 19.7452 26.6485 20.843 26.5558C21.9409 26.4631 22.9928 26.0577 23.8826 25.3842C24.0744 25.2388 24.2578 25.082 24.4319 24.9144C24.636 24.8115 24.8603 24.7591 25.0872 24.7613C25.4797 24.7652 25.8547 24.9298 26.1307 25.219C26.4067 25.5083 26.5612 25.899 26.5607 26.3059Z" fill="#48D900"/>
<path d="M24.2178 15.6454C24.0797 15.5665 23.9546 15.4651 23.8474 15.3451C23.9753 15.4393 24.0979 15.539 24.2178 15.6454Z" fill="black"/>
<path d="M25.8983 13.2127C25.8383 13.1622 25.7783 13.1131 25.717 13.0653C25.7808 13.1099 25.8414 13.1592 25.8983 13.2127Z" fill="black"/>
<path d="M24.4293 24.9101C24.2552 25.0777 24.0717 25.2346 23.8799 25.3799C24.0238 25.1796 24.2123 25.0184 24.4293 24.9101Z" fill="black"/>
<path d="M39.4065 20.4552C39.3951 23.9366 38.5027 27.3542 36.8185 30.3667C36.7182 30.5472 36.6148 30.7277 36.5084 30.9082C36.2834 31.1588 35.9828 31.3225 35.6561 31.3724C35.3294 31.4223 34.9961 31.3553 34.7112 31.1825C34.4262 31.0097 34.2064 30.7415 34.0882 30.4219C33.97 30.1022 33.9602 29.7504 34.0606 29.4242L34.0281 29.3901C36.1371 25.8829 36.9452 21.7009 36.302 17.6228C35.6587 13.5448 33.6079 9.8485 30.5314 7.22226C27.4549 4.59602 23.5624 3.21878 19.5786 3.34695C15.5947 3.47512 11.7911 5.09997 8.87584 7.91897C5.96057 10.738 4.13235 14.559 3.73158 18.6707C3.3308 22.7824 4.38478 26.9044 6.69727 30.2694C9.00977 33.6344 12.4232 36.013 16.302 36.9624C20.1808 37.9118 24.2606 37.3672 27.7819 35.43C27.9053 35.3614 28.0287 35.2954 28.1495 35.2186C28.2817 35.1678 28.4203 35.1369 28.561 35.1268L28.667 35.1273C28.8579 35.128 29.0468 35.1677 29.2229 35.2442C29.399 35.3206 29.5589 35.4323 29.6933 35.5729C29.8277 35.7134 29.9341 35.88 30.0064 36.0632C30.0786 36.2465 30.1154 36.4427 30.1145 36.6406C30.1143 36.6777 30.1141 36.7144 30.114 36.7506C30.098 36.9659 30.0374 37.1753 29.9365 37.3643C29.8356 37.5533 29.6966 37.7176 29.529 37.8459C29.4174 37.9119 29.3045 37.9806 29.1917 38.0371C26.3658 39.6114 23.2047 40.4262 19.9973 40.4068C9.33865 40.3496 0.712466 31.3271 0.763304 20.2774C0.814142 9.2276 9.52298 0.284872 20.1764 0.333887C30.8298 0.382901 39.4573 9.40946 39.4065 20.4552Z" fill="white"/>
<path d="M45.1258 20.3632C45.1492 15.2599 49.5657 10.9959 54.7221 11.0197C56.0304 11.0262 57.3236 11.3023 58.5227 11.8305C59.7219 12.3589 60.8019 13.1287 61.6967 14.0928L58.8841 16.6179C57.8428 15.3973 56.3561 14.5714 54.7058 14.5638C51.6959 14.55 49.1189 17.2341 49.1044 20.3764C49.0898 23.5496 51.642 26.2591 54.6519 26.2729C56.3022 26.2805 57.7965 25.4683 58.849 24.2557L61.6382 26.8082C60.731 27.7594 59.6433 28.5162 58.4402 29.0332C57.2371 29.5502 55.9431 29.8167 54.6356 29.8171C49.4792 29.7985 45.1023 25.4683 45.1258 20.3632Z" fill="white"/>
<path d="M72.2164 15.6128L72.2019 18.7604C69.4383 18.7477 67.6645 20.3267 67.6531 22.8096L67.624 29.1249L63.8833 29.1077L63.9441 15.8822L67.6799 15.8993L67.6686 18.3557C68.0861 17.5123 68.7361 16.8061 69.5421 16.3201C70.3478 15.8342 71.2757 15.5886 72.2164 15.6128Z" fill="white"/>
<path d="M83.8152 25.3304L86.2088 27.8499C85.0138 29.1115 82.7072 29.9462 80.7421 29.9372C76.7581 29.9188 73.668 26.9212 73.6873 22.7221C73.7062 18.6071 76.6945 15.6322 80.6063 15.6502C84.7969 15.6695 87.2392 18.9282 87.2154 24.0823L77.5612 24.0379C77.9944 25.5196 79.1538 26.528 80.7309 26.5353C81.7924 26.535 83.088 26.0386 83.8152 25.3304ZM77.6193 21.2605L83.5936 21.288C83.2387 19.9403 82.2601 19.0648 80.7334 19.0578C80.0545 19.0452 79.389 19.2512 78.831 19.6466C78.2732 20.042 77.8517 20.6067 77.626 21.2605L77.6193 21.2605Z" fill="white"/>
<path d="M103.817 11.2455L103.732 29.7247L99.9883 29.7074L99.9973 27.7505C99.4804 28.4659 98.8058 29.0437 98.0295 29.4356C97.2533 29.8277 96.3976 30.0227 95.5339 30.0045C92.0031 29.9883 89.4579 27.0154 89.4772 22.8114C89.4965 18.635 92.0689 15.6856 95.5997 15.7019C96.4634 15.6918 97.317 15.8945 98.0895 16.2932C98.8621 16.6921 99.5316 17.2756 100.042 17.9951L100.073 11.2283L103.817 11.2455ZM100.026 22.86C100.037 20.5872 98.637 18.9671 96.6664 18.9581C94.5944 18.9485 93.1282 20.5554 93.1177 22.8282C93.1071 25.1284 94.5585 26.7487 96.6305 26.7583C98.5945 26.7673 100.009 25.1602 100.02 22.8599L100.026 22.86Z" fill="white"/>
<path d="M106.819 12.4738C106.826 12.0821 106.964 11.7012 107.215 11.3788C107.467 11.0563 107.821 10.8065 108.232 10.6608C108.644 10.515 109.095 10.4798 109.53 10.5593C109.965 10.6389 110.363 10.8298 110.676 11.1082C110.988 11.3867 111.201 11.7402 111.287 12.1246C111.373 12.5088 111.329 12.907 111.16 13.2689C110.991 13.631 110.705 13.9408 110.337 14.1598C109.969 14.3787 109.537 14.4969 109.093 14.4998C108.793 14.4989 108.496 14.4457 108.219 14.3433C107.942 14.2408 107.691 14.0912 107.48 13.9029C107.268 13.7148 107.101 13.4917 106.988 13.2464C106.874 13.0011 106.817 12.7386 106.819 12.4738ZM106.973 16.2799L111.142 16.299L111.082 29.3248L106.914 29.3056L106.973 16.2799Z" fill="white"/>
<path d="M122.533 28.9697C121.66 29.6965 120.558 30.1015 119.415 30.1151C117.037 30.1042 115.369 28.423 115.38 26.0232L115.41 19.4967L113.554 19.4882L113.568 16.4542L115.424 16.4627L115.441 12.8029L119.102 12.8197L119.085 16.4796L122.015 16.493L122.001 19.5337L119.071 19.5203L119.044 25.4477C119.04 26.3246 119.613 26.9464 120.319 26.9497C120.842 26.9521 121.366 26.7737 121.629 26.5172L122.533 28.9697Z" fill="white"/>
<path d="M124.075 20.7265C124.098 15.6232 128.515 11.3592 133.671 11.3829C134.98 11.3895 136.273 11.6655 137.472 12.1938C138.671 12.7221 139.751 13.4919 140.646 14.4561L137.833 16.9812C136.792 15.7606 135.304 14.9347 133.655 14.9271C130.645 14.9132 128.068 17.5973 128.054 20.7397C128.039 23.9129 130.591 26.6223 133.601 26.6362C135.25 26.6438 136.746 25.8316 137.798 24.6189L140.587 27.1715C139.68 28.1227 138.593 28.8794 137.389 29.3964C136.186 29.9134 134.892 30.18 133.585 30.1803C128.428 30.1618 124.051 25.8315 124.075 20.7265Z" fill="#47D800"/>
<path d="M155.654 21.0359L155.614 29.5297L151.959 29.5129L151.995 21.8203C152.002 20.1675 150.97 19.0262 149.465 19.0192C147.884 19.012 146.66 20.1429 146.653 21.5879L146.617 29.4883L142.832 29.4709L142.915 11.4254L146.7 11.4428L146.671 17.7676C147.506 16.6097 148.988 15.842 150.699 15.8499C153.603 15.8633 155.667 18.0151 155.654 21.0359Z" fill="#47D800"/>
<path d="M168.028 25.7178L170.423 28.2373C169.226 29.499 166.921 30.3337 164.955 30.3246C160.971 30.3063 157.88 27.3086 157.9 23.1096C157.919 18.9945 160.907 16.0197 164.819 16.0377C169.018 16.057 171.452 19.3157 171.428 24.4698L161.779 24.4254C162.212 25.9071 163.371 26.9155 164.958 26.9228C166.005 26.9225 167.3 26.426 168.028 25.7178ZM161.832 21.6479L167.808 21.6754C167.451 20.3278 166.474 19.4523 164.946 19.4452C164.267 19.4328 163.601 19.639 163.043 20.0344C162.486 20.4298 162.065 20.9943 161.838 21.648L161.832 21.6479Z" fill="#47D800"/>
<path d="M181.852 22.2193L187.142 29.6748L182.647 29.6541L179.246 24.6319L177.58 26.3534L177.565 29.6224L173.66 29.6044L173.743 11.5673L177.648 11.5852L177.599 22.0322L182.762 16.302L187.255 16.3227L181.852 22.2193Z" fill="#47D800"/>
<path d="M97.046 11.9662C96.7668 11.7678 96.5141 11.5127 96.2976 11.2108C96.556 11.4478 96.8037 11.6985 97.046 11.9662Z" fill="white"/>
<path d="M100.83 6.72032C100.582 6.46158 100.334 6.20981 100.081 5.96497C100.345 6.19334 100.595 6.44578 100.83 6.72032Z" fill="white"/>
</svg>
